<?xml version="1.0" standalone="no"?>
<!DOCTYPE svg PUBLIC "-//W3C//DTD SVG 20010904//EN"
 "http://www.w3.org/TR/2001/REC-SVG-20010904/DTD/svg10.dtd">
<svg version="1.0" xmlns="http://www.w3.org/2000/svg"
 width="70.000000pt" height="22.000000pt" viewBox="0 0 70.000000 22.000000"
 preserveAspectRatio="xMidYMid meet">

<g transform="translate(0.000000,22.000000) scale(0.100000,-0.100000)"
fill="#000000" stroke="none">
<path d="M24 197 c-3 -8 -4 -49 -2 -93 l3 -79 325 0 325 0 3 74 c2 58 -1 77
-14 92 -19 21 -83 26 -101 8 -8 -8 -13 -8 -17 0 -9 14 -71 14 -97 1 -14 -8
-19 -21 -19 -55 0 -38 -3 -45 -20 -45 -20 0 -23 6 -24 70 l-1 35 -109 2 c-63
1 -115 -2 -122 -8 -8 -7 -14 -7 -19 1 -9 15 -105 13 -111 -3z m101 -82 l0 -70
-42 -3 -43 -3 0 76 0 76 43 -3 42 -3 0 -70z m123 -2 c2 -60 0 -73 -13 -73 -9
0 -15 9 -15 25 0 16 -6 25 -15 25 -9 0 -15 -9 -15 -25 0 -16 -6 -25 -15 -25
-12 0 -15 14 -15 69 0 75 4 81 55 78 l30 -2 3 -72z m62 51 c0 -14 4 -23 10
-19 6 3 10 15 10 26 0 12 7 19 20 19 23 0 24 -4 9 -32 -8 -14 -8 -23 0 -31 6
-6 11 -28 11 -49 0 -31 -4 -38 -20 -38 -16 0 -20 7 -20 35 0 19 -4 35 -10 35
-5 0 -10 -16 -10 -35 0 -24 -5 -35 -15 -35 -12 0 -15 15 -15 75 0 60 3 75 15
75 9 0 15 -10 15 -26z m228 3 c3 -16 -1 -18 -28 -12 l-31 7 3 -49 c2 -26 8
-47 13 -45 6 2 9 14 8 28 -1 18 3 24 18 24 15 0 19 -7 19 -39 0 -38 0 -38 -37
-36 -21 1 -41 3 -45 4 -14 2 -9 129 5 135 27 11 72 1 75 -17z m110 11 c21 -21
13 -31 -18 -24 l-30 6 0 -50 c0 -30 4 -50 11 -50 7 0 10 12 7 30 -4 26 -1 30
19 30 20 0 23 -5 23 -39 0 -38 0 -38 -37 -36 -21 1 -41 3 -45 4 -10 1 -11 125
-1 134 11 11 58 8 71 -5z m-228 -123 c0 -8 -7 -15 -15 -15 -8 0 -15 7 -15 15
0 8 7 15 15 15 8 0 15 -7 15 -15z"/>
<path d="M80 120 c0 -27 5 -50 10 -50 6 0 10 23 10 50 0 28 -4 50 -10 50 -5 0
-10 -22 -10 -50z"/>
<path d="M196 163 c-12 -13 -6 -53 9 -53 9 0 15 9 15 24 0 26 -12 40 -24 29z"/>
</g>
</svg>
