<?xml version="1.0" encoding="UTF-8"?>
<svg version="1.1" xmlns="http://www.w3.org/2000/svg" width="70" height="22">
<path d="M0 0 C3.5 0.25 3.5 0.25 5.5 2.25 C5.6953125 5.2890625 5.6953125 5.2890625 5.625 8.875 C5.60695313 10.06351563 5.58890625 11.25203125 5.5703125 12.4765625 C5.54710937 13.39179688 5.52390625 14.30703125 5.5 15.25 C1.87 15.25 -1.76 15.25 -5.5 15.25 C-5.55386629 13.12527424 -5.59273071 11.00016348 -5.625 8.875 C-5.64820313 7.69164062 -5.67140625 6.50828125 -5.6953125 5.2890625 C-5.40610666 0.78901962 -4.44440375 0.31745741 0 0 Z M-0.5 3.25 C0.5 7.25 0.5 7.25 0.5 7.25 Z " fill="#D4D5D6" transform="translate(20.5,2.75)"/>
<path d="M0 0 C3.5 0.25 3.5 0.25 5.5 2.25 C5.5 3.24 5.5 4.23 5.5 5.25 C3.85 5.25 2.2 5.25 0.5 5.25 C1.4590625 5.4665625 1.4590625 5.4665625 2.4375 5.6875 C4.5 6.25 4.5 6.25 5.5 7.25 C5.64115161 9.92058851 5.54247107 12.57432238 5.5 15.25 C4.04207116 15.30399736 2.58357288 15.34279177 1.125 15.375 C0.31289063 15.39820313 -0.49921875 15.42140625 -1.3359375 15.4453125 C-3.5 15.25 -3.5 15.25 -5.5 13.25 C-5.765625 10.71875 -5.765625 10.71875 -5.75 7.75 C-5.75515625 6.7703125 -5.7603125 5.790625 -5.765625 4.78125 C-5.3283339 0.61412306 -4.06362854 0.29025918 0 0 Z M-0.5 9.25 C0.5 12.25 0.5 12.25 0.5 12.25 Z " fill="#DBDBDC" transform="translate(49.5,2.75)"/>
<path d="M0 0 C6.93359375 -0.09765625 6.93359375 -0.09765625 9 0 C10 1 10 1 10.1328125 3.90625 C10.13023438 5.0921875 10.12765625 6.278125 10.125 7.5 C10.12757812 8.6859375 10.13015625 9.871875 10.1328125 11.09375 C10 14 10 14 9 15 C5.99668982 15.14193337 3.00782866 15.04236378 0 15 C0 10.05 0 5.1 0 0 Z M4 3 C4 5.97 4 8.94 4 12 C4.66 12 5.32 12 6 12 C6 9.03 6 6.06 6 3 C5.34 3 4.68 3 4 3 Z " fill="#F2F2F2" transform="translate(4,3)"/>
<path d="M0 0 C1.32 0 2.64 0 4 0 C4.33 0.66 4.66 1.32 5 2 C5.33 1.34 5.66 0.68 6 0 C7.32 0 8.64 0 10 0 C10 4.95 10 9.9 10 15 C8.68 15 7.36 15 6 15 C6 13.02 6 11.04 6 9 C5.34 9 4.68 9 4 9 C4 10.98 4 12.96 4 15 C2.68 15 1.36 15 0 15 C0 10.05 0 5.1 0 0 Z " fill="#EEEEEF" transform="translate(27,3)"/>
<path d="M0 0 C2.05078125 0.03255208 4.1015625 0.06510417 6.15234375 0.09765625 C6.48234375 1.74765625 6.81234375 3.39765625 7.15234375 5.09765625 C5.83234375 5.09765625 4.51234375 5.09765625 3.15234375 5.09765625 C3.15234375 4.43765625 3.15234375 3.77765625 3.15234375 3.09765625 C2.49234375 3.09765625 1.83234375 3.09765625 1.15234375 3.09765625 C1.15234375 6.06765625 1.15234375 9.03765625 1.15234375 12.09765625 C1.81234375 12.09765625 2.47234375 12.09765625 3.15234375 12.09765625 C2.82234375 10.11765625 2.49234375 8.13765625 2.15234375 6.09765625 C3.80234375 6.09765625 5.45234375 6.09765625 7.15234375 6.09765625 C7.15234375 9.06765625 7.15234375 12.03765625 7.15234375 15.09765625 C0.21875 15.1953125 0.21875 15.1953125 -1.84765625 15.09765625 C-2.84765625 14.09765625 -2.84765625 14.09765625 -2.98046875 11.19140625 C-2.97789063 10.00546875 -2.9753125 8.81953125 -2.97265625 7.59765625 C-2.97523437 6.41171875 -2.9778125 5.22578125 -2.98046875 4.00390625 C-2.8042679 0.14821712 -2.8042679 0.14821712 0 0 Z " fill="#E7E7E8" transform="translate(58.84765625,2.90234375)"/>
<path d="M0 0 C0.99 1.485 0.99 1.485 2 3 C4.56282742 3.72965366 4.56282742 3.72965366 7 4 C7 6.64 7 9.28 7 12 C5.35 11.67 3.7 11.34 2 11 C2.33 9.35 2.66 7.7 3 6 C2.34 6 1.68 6 1 6 C0.67 6.99 0.34 7.98 0 9 C0 6.03 0 3.06 0 0 Z " fill="#C3C3C5" transform="translate(48,6)"/>
<path d="M0 0 C1.32 0 2.64 0 4 0 C4 1.32 4 2.64 4 4 C2.68 4 1.36 4 0 4 C0 2.68 0 1.36 0 0 Z " fill="#E4E4E5" transform="translate(39,14)"/>
</svg>
